<?xml version="1.0" standalone="no"?><!DOCTYPE svg PUBLIC "-//W3C//DTD SVG 1.1//EN" "http://www.w3.org/Graphics/SVG/1.1/DTD/svg11.dtd"><svg t="1769958936906" class="icon" viewBox="0 0 1024 1024" version="1.1" xmlns="http://www.w3.org/2000/svg" p-id="7776" xmlns:xlink="http://www.w3.org/1999/xlink" width="200" height="200"><path d="M731.434667 292.565333a146.730667 146.730667 0 0 1-146.304-146.261333A146.730667 146.730667 0 0 1 731.434667 0a146.730667 146.730667 0 0 1 146.261333 146.304 146.730667 146.730667 0 0 1-146.261333 146.261333z m0-243.797333a97.792 97.792 0 0 0-97.536 97.536 97.792 97.792 0 0 0 97.536 97.493333 97.792 97.792 0 0 0 97.536-97.493333 97.792 97.792 0 0 0-97.536-97.536zM512 877.653333c-14.634667 0-24.362667-9.728-24.362667-24.362666v-224.298667c0-7.338667-4.906667-17.066667-12.202666-21.930667L292.565333 494.933333c-7.296-4.864-12.202667-9.770667-14.634666-14.634666-14.634667-21.930667-7.296-53.632 14.634666-68.266667l182.869334-112.128c29.269333-17.066667 68.266667-12.202667 92.629333 12.16l129.237333 141.44a26.325333 26.325333 0 0 0 17.066667 7.296h187.733333c14.634667 0 24.362667 9.770667 24.362667 24.362667 0 14.634667-9.728 24.405333-24.362667 24.405333H716.8c-19.498667 0-38.997333-9.770667-53.632-24.405333l-129.237333-141.397334c-7.296-9.728-21.930667-9.728-31.701334-4.864L321.834667 450.986667l182.869333 112.170666c21.930667 12.202667 34.133333 36.565333 34.133333 63.402667v224.298667c-2.474667 17.066667-12.202667 26.794667-26.837333 26.794666z" fill="#13227a" p-id="7777"></path><path d="M816.768 1024a207.061333 207.061333 0 0 1-207.232-207.232 207.061333 207.061333 0 0 1 207.232-207.232A207.061333 207.061333 0 0 1 1024 816.768 207.061333 207.061333 0 0 1 816.768 1024z m0-365.696a158.165333 158.165333 0 0 0-158.464 158.464 158.165333 158.165333 0 0 0 158.464 158.464 158.165333 158.165333 0 0 0 158.464-158.464 158.165333 158.165333 0 0 0-158.464-158.464zM207.232 1024A207.061333 207.061333 0 0 1 0 816.768a207.061333 207.061333 0 0 1 207.232-207.232 207.061333 207.061333 0 0 1 207.232 207.232A207.061333 207.061333 0 0 1 207.232 1024z m0-365.696a158.165333 158.165333 0 0 0-158.464 158.464 158.165333 158.165333 0 0 0 158.464 158.464 158.165333 158.165333 0 0 0 158.464-158.464 158.165333 158.165333 0 0 0-158.464-158.464z" fill="#13227a" p-id="7778"></path></svg>