<?xml version="1.0" standalone="no"?><!DOCTYPE svg PUBLIC "-//W3C//DTD SVG 1.1//EN" "http://www.w3.org/Graphics/SVG/1.1/DTD/svg11.dtd"><svg t="1769959054451" class="icon" viewBox="0 0 1025 1024" version="1.1" xmlns="http://www.w3.org/2000/svg" p-id="9241" xmlns:xlink="http://www.w3.org/1999/xlink" width="200.1953125" height="200"><path d="M939.997324 854.167273c-12.334545 49.675636-56.064 85.888-107.834182 85.888-48.046545 0-88.971636-30.789818-104.541091-75.147637H296.343505c-15.569455 44.392727-56.529455 75.147636-104.576 75.147637-51.758545 0-95.441455-36.212364-107.799272-85.888-53.818182-22.562909-88.110545-78.277818-83.607273-140.101818l10.577455-143.848728c4.142545-57.425455 40.296727-108.183273 92.090181-131.851636l46.533819-224.244364C166.574778 132.142545 246.935505 65.442909 328.715869 65.442909h366.533818c81.780364 0 162.141091 66.664727 179.141818 148.677818l46.522182 224.244364c51.793455 23.656727 87.947636 74.426182 92.125091 131.851636l10.530909 143.848728c4.503273 61.835636-29.754182 117.538909-83.572363 140.101818z m10.600727-279.144728c-2.746182-37.341091-30.219636-71.249455-66.862546-82.443636a31.941818 31.941818 0 0 1-22.167272-27.042909 67.281455 67.281455 0 0 1-0.465455-5.364364c-0.069818-0.930909-0.069818-1.896727-0.256-2.850909l-47.662545-229.806545c-11.031273-53.050182-65.047273-97.885091-117.934546-97.885091H328.715869c-52.922182 0-106.903273 44.834909-117.934545 97.885091l-47.685819 229.829818c-0.197818 0.861091-0.197818 1.826909-0.267636 2.781091-0.128 1.826909-0.256 3.677091-0.465454 5.504a31.930182 31.930182 0 0 1-22.132364 26.973091c-36.677818 11.159273-64.186182 45.056-66.909091 82.443636l-10.530909 143.860364c-2.816 38.272 20.282182 70.981818 56.168727 79.488 13.591273 3.281455 23.458909 15.406545 24.157091 29.730909 1.291636 26.810182 22.667636 47.778909 48.651636 47.778909 25.378909 0 46.196364-19.712 48.453819-45.893818 1.454545-16.535273 14.976-29.230545 31.185454-29.230546h481.152c16.209455 0 29.789091 12.695273 31.185455 29.230546 2.245818 26.181818 23.051636 45.893818 48.442182 45.893818 25.972364 0 47.348364-21.015273 48.651636-47.778909 0.733091-14.382545 10.600727-26.472727 24.192-29.730909 35.851636-8.506182 58.949818-41.250909 56.098909-79.522909l-10.530909-143.848728z m-109.754182 127.371637c-13.114182 13.428364-31.511273 21.236364-50.036364 21.236363s-36.922182-7.819636-50.01309-21.236363c-13.079273-13.405091-20.701091-32.267636-20.701091-51.258182s7.621818-37.876364 20.701091-51.293091c13.090909-13.416727 31.488-21.236364 50.01309-21.236364s36.922182 7.819636 50.036364 21.236364c13.090909 13.416727 20.712727 32.302545 20.712727 51.293091s-7.621818 37.853091-20.712727 51.258182z m-60.043636-245.701818c-6.120727 7.586909-16.104727 11.997091-27.729455 11.997091H270.82496c-11.601455 0-21.573818-4.410182-28.136727-12.462546-6.260364-7.389091-8.936727-18.129455-7.179637-29.754182 0.162909-0.802909 0.290909-1.559273 0.453819-2.327272l37.876363-168.762182c4.770909-26.647273 30.487273-48.849455 56.936727-48.849455h362.356364c26.426182 0 52.142545 22.272 56.890182 48.849455l37.876364 168.797091c0.209455 0.756364 0.325818 1.524364 0.465454 2.327272 1.722182 11.624727-0.930909 22.365091-7.563636 30.184728z m-91.485091-186.007273H334.685324l-30.056728 133.818182h414.708364l-30.021818-133.818182z m-406.155637 431.709091c-13.090909 13.428364-31.488 21.236364-50.001454 21.236363s-36.910545-7.819636-50.001455-21.236363c-13.114182-13.405091-20.747636-32.267636-20.747636-51.258182s7.621818-37.876364 20.747636-51.293091c13.090909-13.416727 31.488-21.236364 50.001455-21.236364s36.910545 7.819636 50.001454 21.236364c13.114182 13.416727 20.747636 32.302545 20.747637 51.293091s-7.633455 37.853091-20.747637 51.258182z m0 0" p-id="9242" fill="#13227a"></path></svg>