<?xml version="1.0" standalone="no"?><!DOCTYPE svg PUBLIC "-//W3C//DTD SVG 1.1//EN" "http://www.w3.org/Graphics/SVG/1.1/DTD/svg11.dtd"><svg t="1769958812900" class="icon" viewBox="0 0 1024 1024" version="1.1" xmlns="http://www.w3.org/2000/svg" p-id="5344" xmlns:xlink="http://www.w3.org/1999/xlink" width="200" height="200"><path d="M802.364 503.4915555555555c-8.603-10.48-20.92-18.195-35.624-22.312-43.722-12.242-101.117-41.54-126.264-111.59-12.15-33.847-32.359-59.12799999999999-60.145-75.29 53.136-8.95 93.747-55.276 93.747-110.91899999999998 0-62.026-50.462-112.49-112.49-112.49S449.1 121.35555555555561 449.1 183.3805555555556c0 36.495 17.474 68.982 44.49 89.548a295.71 295.71 0 0 0-6.057-0.063c-8.518 0-34.43999999999999 0-128.55 58.523-45.102 28.046999999999997-84.82199999999999 56.487-85.218 56.77-0.418 0.301-0.823 0.622-1.21 0.963-21.421999999999997 18.903-34.357 69.532-38.924 90.423-9.234 42.242999999999995-11.355 80.977-5.672 103.614 4.913 19.574 15.385 25.904 23.306 27.769 3.292 0.7739999999999999 6.542999999999999 1.1669999999999998 9.664 1.1669999999999998 15.537 0 27.92-9.182 36.807-27.291 6.393-13.025999999999998 11.014-30.03 16.365-49.717 3.342-12.299 6.7989999999999995-25.015 11.07-38.26 11.572-35.874 54.476-65.017 80.594-79.922 0.17 23.058-1.448 57.927-11.209 80.704-17.281 40.323-33.611 84.693-43.483 183.41-6.714 67.142-26.827 87.981-63.339 125.808-12.542 12.993-26.758 27.723-42.747 46.62-41.081 48.548-39.206 81.373-30.4 100.359 9.928 21.408 31.875 30.989 49.222 30.988 2.186 0 4.36-0.142 6.465-0.423 7.438-0.991 18.861-5.496 47.188-31.385999999999996 17.241-15.756 37.833-36.785999999999994 59.552-60.819 35.652-39.448 80.676-94.421 90.238-119.52 9.454-24.816 14.728-58.38 17.5-82.355l40.938 34.735c48.505 41.157 59.641999999999996 100.445 72.538 169.096 2.7639999999999993 14.716999999999999 5.622 29.933999999999997 8.94 45.527 3.878 18.228 9.037 31.76 15.772 41.367999999999995 9.796 13.976 21.142 16.909 28.935 16.908 30.733-0.002 52.98-44.762 52.98-74.936 0-4.957 0.11999999999999998-11.19 0.26-18.408 1.02-52.550999999999995 2.919-150.368-32.428-195.017-10.763-13.594-23.887-27.289999999999996-37.782-41.791-31.228-32.59-66.622-69.527-66.622-100.643 0-26.182 10.008999999999999-54.081 18.887-73.676 13.972 18.409999999999997 34.83 32.82 52.776999999999994 42.837 31.497 17.58 71.482 31.19 106.956 36.407 5.592 0.823 10.975 1.24 15.998 1.24 33.74-0.005 48.255-18.177 50.59-35.18 1.647-11.993-2.304-24.517999999999997-11.127-35.266zM479.8 183.38155555555556c0-45.1 36.68999999999999-81.792 81.79-81.792s81.79 36.691 81.79 81.791-36.68999999999999 81.79-81.79 81.79-81.79-36.68999999999999-81.79-81.79z m303.278 351.202c-0.876 6.38-10.999 8.655-20.18 8.656-3.532 0-7.41-0.30699999999999994-11.528-0.9119999999999999-63.992-9.41-141.207-48.157-148.761-85.926a15.35 15.35 0 0 0-28.094-5.083c-1.509 2.429-36.931 60.141-36.931 115.81299999999999 0 43.449 38.207 83.32199999999999 75.155 121.88099999999999 13.38 13.963 26.015999999999995 27.15 35.879 39.607 28.509 36.012 26.682 130.134 25.805 175.366-0.143 7.378-0.267 13.75-0.267 19.004 0 9.383999999999999-3.756 21.693-9.569 31.36-5.885 9.787-11.346 12.853-12.698999999999998 12.876-1.704-0.45599999999999996-9.055999999999997-7.468-14.692999999999998-33.966-3.241-15.233-6.066-30.265999999999995-8.796-44.805-13.393-71.296-26.041999999999998-138.638-82.847-186.837l-63.47899999999999-53.86a15.343 15.343 0 0 0-15.98-2.403 15.349 15.349 0 0 0-9.275 13.232c-0.037 0.65-3.878 65.39-18.255 103.12999999999998-6.158999999999999 16.167-40.703 61.351-82.138 107.43799999999999-51.591 57.382-82.748 82.367-90.528 84.825-7.511 0.854-18.841-3.13-23.461-13.091999999999999-7.026-15.15 2.445-39.792 25.985-67.612 15.34-18.13 29.186-32.474 41.401-45.13 38.553-39.943 64.023-66.33 71.798-144.074 9.45-94.50499999999998 24.228-134.882 41.153-174.372 18.596-43.391999999999996 12.98-115.79299999999999 12.732-118.854a15.35 15.35 0 0 0-21.561-12.774c-3.946 1.764-96.896 43.938-117.99 109.327-4.493 13.928-8.204 27.585-11.479 39.634-6.925 25.48-14.774 54.361-23.546999999999997 54.361-0.369 0-0.767-0.026999999999999996-1.193-0.084-1.9169999999999998-3.265-5.264-14.749-3.8799999999999994-40.396 2.9-53.73 22.35-114.819 36.52-128.323 5.515-3.928 41.87299999999999-29.673 82.817-55.134 78.22-48.641999999999996 104.619-53.893 112.338-53.893 65.921 0 105.339 24.275 124.05 76.396 13.155 36.646 35.154 67.132 65.383 90.612 23.176 18.001 50.596 31.515999999999995 81.5 40.168 17.522 4.908 25.554 17 24.615 23.844z" fill="#13227a" p-id="5345"></path></svg>